<svg width="46" height="36" viewBox="0 0 46 36" fill="none" xmlns="http://www.w3.org/2000/svg">
<path d="M43.661 34.5488H2.75393C1.98692 34.5488 1.47559 34.0375 1.47559 33.2704V27.1344C1.47559 24.9612 3.13743 23.2994 5.31062 23.2994H41.1043C43.2775 23.2994 44.9393 24.9612 44.9393 27.1344V33.2704C44.9393 34.0375 44.428 34.5488 43.661 34.5488Z" stroke="white" stroke-width="2" stroke-miterlimit="10"/>
<path d="M8.25083 23.0437L4.03229 5.65821" stroke="white" stroke-width="2" stroke-miterlimit="10" stroke-linecap="round"/>
<path d="M37.9084 23.0437L42.2548 5.65821" stroke="white" stroke-width="2" stroke-miterlimit="10" stroke-linecap="round"/>
<path d="M23.2075 18.3138C24.5489 18.3138 25.6364 17.2264 25.6364 15.885C25.6364 14.5436 24.5489 13.4561 23.2075 13.4561C21.8661 13.4561 20.7787 14.5436 20.7787 15.885C20.7787 17.2264 21.8661 18.3138 23.2075 18.3138Z" stroke="white" stroke-width="2" stroke-miterlimit="10"/>
<path d="M29.8547 11.7942C28.1929 10.1324 25.764 9.10971 23.2073 9.10971C20.6506 9.10971 18.2218 10.1324 16.5599 11.7942" stroke="white" stroke-width="2" stroke-miterlimit="10" stroke-linecap="round"/>
<path d="M32.5391 9.10974C30.1103 6.68088 26.7866 5.2747 23.2072 5.2747C19.5 5.2747 16.1763 6.68088 13.8753 9.10974" stroke="white" stroke-width="2" stroke-miterlimit="10" stroke-linecap="round"/>
<path d="M35.3517 6.42524C32.1558 3.35721 27.9373 1.4397 23.2074 1.4397C18.4775 1.4397 14.259 3.35721 11.0631 6.42524" stroke="white" stroke-width="2" stroke-miterlimit="10" stroke-linecap="round"/>
<path d="M37.7806 29.1798H33.1786" stroke="white" stroke-width="2" stroke-miterlimit="10" stroke-linecap="round"/>
<path d="M9.5291 29.1798H7.99509" stroke="white" stroke-width="2" stroke-miterlimit="10" stroke-linecap="round"/>
<path d="M15.9209 29.1798H14.3869" stroke="white" stroke-width="2" stroke-miterlimit="10" stroke-linecap="round"/>
</svg>
